<?xml version="1.0" standalone="no"?>
<!DOCTYPE svg PUBLIC "-//W3C//DTD SVG 20010904//EN"
 "http://www.w3.org/TR/2001/REC-SVG-20010904/DTD/svg10.dtd">
<svg version="1.0" xmlns="http://www.w3.org/2000/svg"
 width="166.000000pt" height="166.000000pt" viewBox="0 0 166.000000 166.000000"
 preserveAspectRatio="xMidYMid meet">
<metadata>
Created by potrace 1.11, written by Peter Selinger 2001-2013
</metadata>
<g transform="translate(0.000000,166.000000) scale(0.100000,-0.100000)"
fill="#000000" stroke="none">
<path d="M632 1406 l-172 -234 -41 -213 c-23 -118 -43 -225 -46 -239 -2 -14
-21 -113 -42 -220 l-37 -195 36 -19 c19 -10 121 -67 225 -126 105 -59 205
-115 224 -124 l33 -18 112 58 c61 32 183 95 271 140 88 46 161 89 163 98 5 22
-166 826 -182 857 -17 34 -357 469 -366 469 -4 0 -84 -105 -178 -234z m352
-34 c91 -117 166 -216 166 -222 0 -5 -21 -73 -46 -151 -38 -117 -48 -140 -58
-127 -6 8 -61 99 -121 202 -60 102 -112 186 -115 186 -4 0 -34 -51 -68 -112
-159 -294 -159 -295 -165 -288 -6 7 -87 275 -87 288 0 18 318 448 326 439 1
-1 77 -98 168 -215z m-56 -364 c89 -151 111 -198 107 -218 -3 -14 -36 -119
-73 -235 l-68 -210 -81 -3 -80 -3 -48 158 c-26 87 -58 191 -71 232 l-23 74
107 199 c59 109 109 198 112 198 4 0 57 -86 118 -192z m-409 -54 l42 -140
-100 -185 c-116 -214 -121 -222 -115 -194 2 11 29 153 59 315 70 369 66 352
70 348 1 -2 21 -66 44 -144z m726 -204 c36 -173 68 -322 70 -330 4 -13 3 -13
-6 0 -39 60 -229 392 -229 402 0 7 19 73 42 146 29 90 45 127 50 115 4 -10 37
-160 73 -333z m-589 -248 c25 -84 44 -155 41 -158 -2 -2 -83 -3 -180 -2 l-176
3 116 214 116 214 18 -59 c11 -33 40 -128 65 -212z m540 50 l122 -207 -196 -3
c-107 -1 -197 -1 -199 1 -2 3 5 29 16 58 10 30 40 119 65 199 58 182 55 174
63 166 4 -4 62 -100 129 -214z m-466 -291 c6 -22 19 -68 30 -102 11 -34 20
-66 20 -71 0 -10 -31 6 -235 121 l-160 91 167 0 167 0 11 -39z m145 27 c-34
-111 -58 -179 -64 -182 -6 -4 -61 164 -61 187 0 4 29 7 65 7 47 0 63 -3 60
-12z m384 9 c-15 -13 -419 -217 -419 -212 0 8 61 198 67 208 2 4 83 7 180 7
97 0 174 -2 172 -3z"/>
</g>
</svg>
